{
    "asset" : {
        "generator" : "Khronos glTF Blender I/O v1.6.9",
        "version" : "2.0"
    },
    "scene" : 0,
    "scenes" : [
        {
            "name" : "Scene",
            "nodes" : [
                0,
                1,
                2,
                3,
                4
            ]
        }
    ],
    "nodes" : [
        {
            "mesh" : 0,
            "name" : "Curve"
        },
        {
            "mesh" : 1,
            "name" : "Curve.001"
        },
        {
            "mesh" : 2,
            "name" : "Curve.002"
        },
        {
            "mesh" : 3,
            "name" : "Curve.003"
        },
        {
            "mesh" : 4,
            "name" : "Curve.004"
        }
    ],
    "materials" : [
        {
            "doubleSided" : true,
            "name" : "SVGMat.001",
            "pbrMetallicRoughness" : {
                "baseColorFactor" : [
                    0.9734454154968262,
                    0.838799238204956,
                    0.4969330430030823,
                    1
                ],
                "metallicFactor" : 0,
                "roughnessFactor" : 0.5
            }
        },
        {
            "doubleSided" : true,
            "name" : "SVGMat.003",
            "pbrMetallicRoughness" : {
                "baseColorFactor" : [
                    0.8069526553153992,
                    0.05780531093478203,
                    0.03820439428091049,
                    1
                ],
                "metallicFactor" : 0,
                "roughnessFactor" : 0.5
            }
        },
        {
            "doubleSided" : true,
            "name" : "SVGMat.002",
            "pbrMetallicRoughness" : {
                "baseColorFactor" : [
                    0.046665068715810776,
                    0.07618542015552521,
                    0.09084172546863556,
                    1
                ],
                "metallicFactor" : 0,
                "roughnessFactor" : 0.5
            }
        },
        {
            "doubleSided" : true,
            "name" : "SVGMat",
            "pbrMetallicRoughness" : {
                "baseColorFactor" : [
                    0.9911021590232849,
                    0.5906187891960144,
                    0.04231145232915878,
                    1
                ],
                "metallicFactor" : 0,
                "roughnessFactor" : 0.5
            }
        },
        {
            "doubleSided" : true,
            "name" : "SVGMat.004",
            "pbrMetallicRoughness" : {
                "baseColorFactor" : [
                    0.4019778072834015,
                    0.11953841149806976,
                    0.11953848600387573,
                    1
                ],
                "metallicFactor" : 0,
                "roughnessFactor" : 0.5
            }
        }
    ],
    "meshes" : [
        {
            "name" : "Curve",
            "primitives" : [
                {
                    "attributes" : {
                        "POSITION" : 0,
                        "NORMAL" : 1,
                        "TEXCOORD_0" : 2
                    },
                    "indices" : 3,
                    "material" : 0
                }
            ]
        },
        {
            "name" : "Curve.001",
            "primitives" : [
                {
                    "attributes" : {
                        "POSITION" : 4,
                        "NORMAL" : 5,
                        "TEXCOORD_0" : 6
                    },
                    "indices" : 7,
                    "material" : 1
                }
            ]
        },
        {
            "name" : "Curve.002",
            "primitives" : [
                {
                    "attributes" : {
                        "POSITION" : 8,
                        "NORMAL" : 9,
                        "TEXCOORD_0" : 10
                    },
                    "indices" : 11,
                    "material" : 2
                }
            ]
        },
        {
            "name" : "Curve.003",
            "primitives" : [
                {
                    "attributes" : {
                        "POSITION" : 12,
                        "NORMAL" : 13,
                        "TEXCOORD_0" : 14
                    },
                    "indices" : 15,
                    "material" : 3
                }
            ]
        },
        {
            "name" : "Curve.004",
            "primitives" : [
                {
                    "attributes" : {
                        "POSITION" : 16,
                        "NORMAL" : 17,
                        "TEXCOORD_0" : 18
                    },
                    "indices" : 19,
                    "material" : 4
                }
            ]
        }
    ],
    "accessors" : [
        {
            "bufferView" : 0,
            "componentType" : 5126,
            "count" : 374,
            "max" : [
                0.09893815219402313,
                0.2019452601671219,
                0.01334236841648817
            ],
            "min" : [
                -0.10151276737451553,
                0.00149441696703434,
                -0.013342360965907574
            ],
            "type" : "VEC3"
        },
        {
            "bufferView" : 1,
            "componentType" : 5126,
            "count" : 374,
            "type" : "VEC3"
        },
        {
            "bufferView" : 2,
            "componentType" : 5126,
            "count" : 374,
            "type" : "VEC2"
        },
        {
            "bufferView" : 3,
            "componentType" : 5123,
            "count" : 564,
            "type" : "SCALAR"
        },
        {
            "bufferView" : 4,
            "componentType" : 5126,
            "count" : 372,
            "max" : [
                -0.009998678229749203,
                0.046115752309560776,
                0.026684708893299103
            ],
            "min" : [
                -0.02754933387041092,
                0.028565101325511932,
                -0.0266847126185894
            ],
            "type" : "VEC3"
        },
        {
            "bufferView" : 5,
            "componentType" : 5126,
            "count" : 372,
            "type" : "VEC3"
        },
        {
            "bufferView" : 6,
            "componentType" : 5126,
            "count" : 372,
            "type" : "VEC2"
        },
        {
            "bufferView" : 7,
            "componentType" : 5123,
            "count" : 564,
            "type" : "SCALAR"
        },
        {
            "bufferView" : 8,
            "componentType" : 5126,
            "count" : 3464,
            "max" : [
                0.059301506727933884,
                0.16410844027996063,
                0.026684720069169998
            ],
            "min" : [
                -0.04573271796107292,
                0.025803061202168465,
                -0.0266847126185894
            ],
            "type" : "VEC3"
        },
        {
            "bufferView" : 9,
            "componentType" : 5126,
            "count" : 3464,
            "type" : "VEC3"
        },
        {
            "bufferView" : 10,
            "componentType" : 5126,
            "count" : 3464,
            "type" : "VEC2"
        },
        {
            "bufferView" : 11,
            "componentType" : 5123,
            "count" : 5484,
            "type" : "SCALAR"
        },
        {
            "bufferView" : 12,
            "componentType" : 5126,
            "count" : 374,
            "max" : [
                -0.025369985029101372,
                0.1616135835647583,
                0.02668471820652485
            ],
            "min" : [
                -0.042920634150505066,
                0.14406293630599976,
                -0.026684703305363655
            ],
            "type" : "VEC3"
        },
        {
            "bufferView" : 13,
            "componentType" : 5126,
            "count" : 374,
            "type" : "VEC3"
        },
        {
            "bufferView" : 14,
            "componentType" : 5126,
            "count" : 374,
            "type" : "VEC2"
        },
        {
            "bufferView" : 15,
            "componentType" : 5123,
            "count" : 564,
            "type" : "SCALAR"
        },
        {
            "bufferView" : 16,
            "componentType" : 5126,
            "count" : 1133,
            "max" : [
                0.056861311197280884,
                0.16153830289840698,
                0.026684721931815147
            ],
            "min" : [
                0.027070343494415283,
                0.13913403451442719,
                -0.026684701442718506
            ],
            "type" : "VEC3"
        },
        {
            "bufferView" : 17,
            "componentType" : 5126,
            "count" : 1133,
            "type" : "VEC3"
        },
        {
            "bufferView" : 18,
            "componentType" : 5126,
            "count" : 1133,
            "type" : "VEC2"
        },
        {
            "bufferView" : 19,
            "componentType" : 5123,
            "count" : 1728,
            "type" : "SCALAR"
        }
    ],
    "bufferViews" : [
        {
            "buffer" : 0,
            "byteLength" : 4488,
            "byteOffset" : 0
        },
        {
            "buffer" : 0,
            "byteLength" : 4488,
            "byteOffset" : 4488
        },
        {
            "buffer" : 0,
            "byteLength" : 2992,
            "byteOffset" : 8976
        },
        {
            "buffer" : 0,
            "byteLength" : 1128,
            "byteOffset" : 11968
        },
        {
            "buffer" : 0,
            "byteLength" : 4464,
            "byteOffset" : 13096
        },
        {
            "buffer" : 0,
            "byteLength" : 4464,
            "byteOffset" : 17560
        },
        {
            "buffer" : 0,
            "byteLength" : 2976,
            "byteOffset" : 22024
        },
        {
            "buffer" : 0,
            "byteLength" : 1128,
            "byteOffset" : 25000
        },
        {
            "buffer" : 0,
            "byteLength" : 41568,
            "byteOffset" : 26128
        },
        {
            "buffer" : 0,
            "byteLength" : 41568,
            "byteOffset" : 67696
        },
        {
            "buffer" : 0,
            "byteLength" : 27712,
            "byteOffset" : 109264
        },
        {
            "buffer" : 0,
            "byteLength" : 10968,
            "byteOffset" : 136976
        },
        {
            "buffer" : 0,
            "byteLength" : 4488,
            "byteOffset" : 147944
        },
        {
            "buffer" : 0,
            "byteLength" : 4488,
            "byteOffset" : 152432
        },
        {
            "buffer" : 0,
            "byteLength" : 2992,
            "byteOffset" : 156920
        },
        {
            "buffer" : 0,
            "byteLength" : 1128,
            "byteOffset" : 159912
        },
        {
            "buffer" : 0,
            "byteLength" : 13596,
            "byteOffset" : 161040
        },
        {
            "buffer" : 0,
            "byteLength" : 13596,
            "byteOffset" : 174636
        },
        {
            "buffer" : 0,
            "byteLength" : 9064,
            "byteOffset" : 188232
        },
        {
            "buffer" : 0,
            "byteLength" : 3456,
            "byteOffset" : 197296
        }
    ],
    "buffers" : [
        {
            "byteLength" : 200752,
            "uri" : "logo.bin"
        }
    ]
}
