{
    "asset" : {
        "generator" : "Khronos glTF Blender I/O v1.6.9",
        "version" : "2.0"
    },
    "scene" : 0,
    "scenes" : [
        {
            "name" : "Scene",
            "nodes" : [
                0
            ]
        }
    ],
    "nodes" : [
        {
            "mesh" : 0,
            "name" : "Cube",
            "translation" : [
                0,
                0.4521747827529907,
                0
            ]
        }
    ],
    "meshes" : [
        {
            "name" : "Cube.001",
            "primitives" : [
                {
                    "attributes" : {
                        "POSITION" : 0,
                        "NORMAL" : 1,
                        "TEXCOORD_0" : 2
                    },
                    "indices" : 3
                }
            ]
        }
    ],
    "accessors" : [
        {
            "bufferView" : 0,
            "componentType" : 5126,
            "count" : 1560,
            "max" : [
                -0.0060887206345796585,
                -0.42717477679252625,
                0.05000000819563866
            ],
            "min" : [
                -2.049999952316284,
                -0.4771747887134552,
                -16.542388916015625
            ],
            "type" : "VEC3"
        },
        {
            "bufferView" : 1,
            "componentType" : 5126,
            "count" : 1560,
            "type" : "VEC3"
        },
        {
            "bufferView" : 2,
            "componentType" : 5126,
            "count" : 1560,
            "type" : "VEC2"
        },
        {
            "bufferView" : 3,
            "componentType" : 5123,
            "count" : 2340,
            "type" : "SCALAR"
        }
    ],
    "bufferViews" : [
        {
            "buffer" : 0,
            "byteLength" : 18720,
            "byteOffset" : 0
        },
        {
            "buffer" : 0,
            "byteLength" : 18720,
            "byteOffset" : 18720
        },
        {
            "buffer" : 0,
            "byteLength" : 12480,
            "byteOffset" : 37440
        },
        {
            "buffer" : 0,
            "byteLength" : 4680,
            "byteOffset" : 49920
        }
    ],
    "buffers" : [
        {
            "byteLength" : 54600,
            "uri" : "yol.bin"
        }
    ]
}
